
<global>
amp_veltrack=0
</global>

<group>
ampeg_attack=0.01
ampeg_release=0.25
group_label=PP
xf_cccurve=gain
xfin_hicc1=63
xfout_hicc1=127
xfout_locc1=64

<region>
hikey=F6
hivel=127
lokey=A#5
loop_end=189362
loop_mode=loop_continuous
loop_start=75687
loop_xfade=34102
lovel=1
pitch_keycenter=A#5
sample=Sopranos_Ooh_sustain_PP_A#5.opus
</region>

<region>
hivel=127
key=A5
loop_end=187890
loop_mode=loop_continuous
loop_start=75099
loop_xfade=33837
lovel=1
sample=Sopranos_Ooh_sustain_PP_A5.opus
tune=-15
</region>

<region>
hivel=127
key=C#5
loop_end=191613
loop_mode=loop_continuous
loop_start=76586
loop_xfade=34508
lovel=1
sample=Sopranos_Ooh_sustain_PP_C#5.opus
tune=-3
</region>

<region>
hivel=127
key=C5
loop_end=191613
loop_mode=loop_continuous
loop_start=76586
loop_xfade=34508
lovel=1
sample=Sopranos_Ooh_sustain_PP_C5.opus
tune=-1
</region>

<region>
hivel=127
key=D#5
loop_end=191613
loop_mode=loop_continuous
loop_start=76586
loop_xfade=34508
lovel=1
sample=Sopranos_Ooh_sustain_PP_D#5.opus
tune=-2
</region>

<region>
hivel=127
key=D5
loop_end=190331
loop_mode=loop_continuous
loop_start=76074
loop_xfade=34277
lovel=1
sample=Sopranos_Ooh_sustain_PP_D5.opus
tune=+2
</region>

<region>
hivel=127
key=E5
loop_end=191613
loop_mode=loop_continuous
loop_start=76586
loop_xfade=34508
lovel=1
sample=Sopranos_Ooh_sustain_PP_E5.opus
tune=+4
</region>

<region>
hivel=127
key=F#5
loop_end=190318
loop_mode=loop_continuous
loop_start=76069
loop_xfade=34274
lovel=1
sample=Sopranos_Ooh_sustain_PP_F#5.opus
tune=-5
</region>

<region>
hivel=127
key=F5
loop_end=187154
loop_mode=loop_continuous
loop_start=74804
loop_xfade=33705
lovel=1
sample=Sopranos_Ooh_sustain_PP_F5.opus
tune=-1
</region>

<region>
hivel=127
key=G#5
loop_end=191613
loop_mode=loop_continuous
loop_start=76586
loop_xfade=34508
lovel=1
sample=Sopranos_Ooh_sustain_PP_G#5.opus
</region>

<region>
hivel=127
key=G5
loop_end=191600
loop_mode=loop_continuous
loop_start=76581
loop_xfade=34505
lovel=1
sample=Sopranos_Ooh_sustain_PP_G5.opus
tune=-11
</region>

<region>
hivel=127
key=A#4
loop_end=191613
loop_mode=loop_continuous
loop_start=76586
loop_xfade=34508
lovel=1
sample=Sopranos_Ooh_sustain_PP_A#4.opus
tune=-2
</region>

<region>
hivel=127
key=A4
loop_end=193544
loop_mode=loop_continuous
loop_start=77358
loop_xfade=34855
lovel=1
sample=Sopranos_Ooh_sustain_PP_A4.opus
tune=-14
</region>

<region>
hivel=127
key=B4
loop_end=191613
loop_mode=loop_continuous
loop_start=76586
loop_xfade=34508
lovel=1
sample=Sopranos_Ooh_sustain_PP_B4.opus
tune=-3
</region>

<region>
hivel=127
key=C#4
loop_end=193544
loop_mode=loop_continuous
loop_start=77358
loop_xfade=34855
lovel=1
sample=Sopranos_Ooh_sustain_PP_C#4.opus
tune=-14
</region>

<region>
hivel=127
key=D#4
loop_end=193544
loop_mode=loop_continuous
loop_start=77358
loop_xfade=34855
lovel=1
sample=Sopranos_Ooh_sustain_PP_D#4.opus
tune=-11
</region>

<region>
hivel=127
key=D4
loop_end=193544
loop_mode=loop_continuous
loop_start=77358
loop_xfade=34855
lovel=1
sample=Sopranos_Ooh_sustain_PP_D4.opus
tune=-6
</region>

<region>
hivel=127
key=E4
loop_end=193544
loop_mode=loop_continuous
loop_start=77358
loop_xfade=34855
lovel=1
sample=Sopranos_Ooh_sustain_PP_E4.opus
tune=-15
</region>

<region>
hivel=127
key=F#4
loop_end=191613
loop_mode=loop_continuous
loop_start=76586
loop_xfade=34508
lovel=1
sample=Sopranos_Ooh_sustain_PP_F#4.opus
tune=-6
</region>

<region>
hivel=127
key=F4
loop_end=191613
loop_mode=loop_continuous
loop_start=76586
loop_xfade=34508
lovel=1
sample=Sopranos_Ooh_sustain_PP_F4.opus
tune=-14
</region>

<region>
hivel=127
key=G#4
loop_end=191613
loop_mode=loop_continuous
loop_start=76586
loop_xfade=34508
lovel=1
sample=Sopranos_Ooh_sustain_PP_G#4.opus
tune=-16
</region>

<region>
hivel=127
key=G4
loop_end=191613
loop_mode=loop_continuous
loop_start=76586
loop_xfade=34508
lovel=1
sample=Sopranos_Ooh_sustain_PP_G4.opus
tune=-14
</region>

<region>
hikey=C4
hivel=127
lokey=F3
loop_end=193544
loop_mode=loop_continuous
loop_start=77358
loop_xfade=34855
lovel=1
sample=Sopranos_Ooh_sustain_PP_C4.opus
tune=-1
</region>
</group>

<group>
ampeg_attack=0.01
ampeg_release=0.25
group_label=FF
xf_cccurve=gain
xfin_hicc1=127
xfin_locc1=64
xfout_hicc1=127
xfout_locc1=127

<region>
hikey=F6
hivel=127
lokey=A#5
loop_end=191090
loop_mode=loop_continuous
loop_start=76378
loop_xfade=34413
lovel=1
pitch_keycenter=A#5
sample=Sopranos_Ooh_sustain_FF_A#5.opus
tune=+6
</region>

<region>
hivel=127
key=A5
loop_end=190942
loop_mode=loop_continuous
loop_start=76318
loop_xfade=34387
lovel=1
sample=Sopranos_Ooh_sustain_FF_A5.opus
tune=+2
</region>

<region>
hivel=127
key=E5
loop_end=189816
loop_mode=loop_continuous
loop_start=75868
loop_xfade=34184
lovel=1
sample=Sopranos_Ooh_sustain_FF_E5.opus
tune=-11
</region>

<region>
hivel=127
key=F#5
loop_end=189288
loop_mode=loop_continuous
loop_start=75657
loop_xfade=34089
lovel=1
sample=Sopranos_Ooh_sustain_FF_F#5.opus
tune=-8
</region>

<region>
hivel=127
key=F5
loop_end=189828
loop_mode=loop_continuous
loop_start=75873
loop_xfade=34186
lovel=1
sample=Sopranos_Ooh_sustain_FF_F5.opus
tune=-13
</region>

<region>
hivel=127
key=G#5
loop_end=189885
loop_mode=loop_continuous
loop_start=75896
loop_xfade=34196
lovel=1
sample=Sopranos_Ooh_sustain_FF_G#5.opus
tune=-5
</region>

<region>
hivel=127
key=G5
loop_end=190005
loop_mode=loop_continuous
loop_start=75944
loop_xfade=34218
lovel=1
sample=Sopranos_Ooh_sustain_FF_G5.opus
tune=-13
</region>

<region>
hivel=127
key=A#4
loop_end=191613
loop_mode=loop_continuous
loop_start=76586
loop_xfade=34508
lovel=1
sample=Sopranos_Ooh_sustain_FF_A#4.opus
tune=+3
</region>

<region>
hivel=127
key=A4
loop_end=193473
loop_mode=loop_continuous
loop_start=77330
loop_xfade=34842
lovel=1
sample=Sopranos_Ooh_sustain_FF_A4.opus
tune=-4
</region>

<region>
hivel=127
key=B4
loop_end=190494
loop_mode=loop_continuous
loop_start=76139
loop_xfade=34306
lovel=1
sample=Sopranos_Ooh_sustain_FF_B4.opus
tune=-6
</region>

<region>
hivel=127
key=C#5
loop_end=190473
loop_mode=loop_continuous
loop_start=76131
loop_xfade=34302
lovel=1
sample=Sopranos_Ooh_sustain_FF_C#5.opus
tune=-4
</region>

<region>
hivel=127
key=C5
loop_end=191440
loop_mode=loop_continuous
loop_start=76518
loop_xfade=34476
lovel=1
sample=Sopranos_Ooh_sustain_FF_C5.opus
tune=+4
</region>

<region>
hivel=127
key=D#5
loop_end=191613
loop_mode=loop_continuous
loop_start=76586
loop_xfade=34508
lovel=1
sample=Sopranos_Ooh_sustain_FF_D#5.opus
tune=+3
</region>

<region>
hivel=127
key=D5
loop_end=191613
loop_mode=loop_continuous
loop_start=76586
loop_xfade=34508
lovel=1
sample=Sopranos_Ooh_sustain_FF_D5.opus
tune=-14
</region>

<region>
hivel=127
key=F#4
loop_end=191385
loop_mode=loop_continuous
loop_start=76495
loop_xfade=34467
lovel=1
sample=Sopranos_Ooh_sustain_FF_F#4.opus
tune=-3
</region>

<region>
hivel=127
key=F4
loop_end=191613
loop_mode=loop_continuous
loop_start=76586
loop_xfade=34508
lovel=1
sample=Sopranos_Ooh_sustain_FF_F4.opus
tune=-3
</region>

<region>
hivel=127
key=G#4
loop_end=190952
loop_mode=loop_continuous
loop_start=76322
loop_xfade=34389
lovel=1
sample=Sopranos_Ooh_sustain_FF_G#4.opus
tune=-2
</region>

<region>
hivel=127
key=G4
loop_end=191383
loop_mode=loop_continuous
loop_start=76494
loop_xfade=34466
lovel=1
sample=Sopranos_Ooh_sustain_FF_G4.opus
tune=-2
</region>

<region>
hivel=127
key=C#4
loop_end=193544
loop_mode=loop_continuous
loop_start=77358
loop_xfade=34855
lovel=1
sample=Sopranos_Ooh_sustain_FF_C#4.opus
tune=-1
</region>

<region>
hikey=C4
hivel=127
lokey=F3
loop_end=193544
loop_mode=loop_continuous
loop_start=77358
loop_xfade=34855
lovel=1
sample=Sopranos_Ooh_sustain_FF_C4.opus
tune=+3
</region>

<region>
hivel=127
key=D#4
loop_end=193544
loop_mode=loop_continuous
loop_start=77358
loop_xfade=34855
lovel=1
sample=Sopranos_Ooh_sustain_FF_D#4.opus
tune=+3
</region>

<region>
hivel=127
key=D4
loop_end=193544
loop_mode=loop_continuous
loop_start=77358
loop_xfade=34855
lovel=1
sample=Sopranos_Ooh_sustain_FF_D4.opus
tune=-6
</region>

<region>
hivel=127
key=E4
loop_end=193544
loop_mode=loop_continuous
loop_start=77358
loop_xfade=34855
lovel=1
sample=Sopranos_Ooh_sustain_FF_E4.opus
tune=-4
</region>
</group>

<group>
ampeg_attack=0.02
ampeg_release=3.5
group_label=PP_rel
trigger=release
xf_cccurve=gain
xfin_hicc1=63
xfout_hicc1=127
xfout_locc1=64

<region>
hikey=F6
hivel=127
lokey=A#5
lovel=1
offset=192000
pitch_keycenter=A#5
sample=Sopranos_Ooh_sustain_PP_A#5.opus
</region>

<region>
hivel=127
key=A5
lovel=1
offset=192000
sample=Sopranos_Ooh_sustain_PP_A5.opus
tune=-15
</region>

<region>
hivel=127
key=C#5
lovel=1
offset=192000
sample=Sopranos_Ooh_sustain_PP_C#5.opus
tune=-3
</region>

<region>
hivel=127
key=C5
lovel=1
offset=192000
sample=Sopranos_Ooh_sustain_PP_C5.opus
tune=-1
</region>

<region>
hivel=127
key=D#5
lovel=1
offset=192000
sample=Sopranos_Ooh_sustain_PP_D#5.opus
tune=-2
</region>

<region>
hivel=127
key=D5
lovel=1
offset=192000
sample=Sopranos_Ooh_sustain_PP_D5.opus
tune=+2
</region>

<region>
hivel=127
key=E5
lovel=1
offset=192000
sample=Sopranos_Ooh_sustain_PP_E5.opus
tune=+4
</region>

<region>
hivel=127
key=F#5
lovel=1
offset=192000
sample=Sopranos_Ooh_sustain_PP_F#5.opus
tune=-5
</region>

<region>
hivel=127
key=F5
lovel=1
offset=192000
sample=Sopranos_Ooh_sustain_PP_F5.opus
tune=-1
</region>

<region>
hivel=127
key=G#5
lovel=1
offset=192000
sample=Sopranos_Ooh_sustain_PP_G#5.opus
</region>

<region>
hivel=127
key=G5
lovel=1
offset=192000
sample=Sopranos_Ooh_sustain_PP_G5.opus
tune=-11
</region>

<region>
hivel=127
key=A#4
lovel=1
offset=192000
sample=Sopranos_Ooh_sustain_PP_A#4.opus
tune=-2
</region>

<region>
hivel=127
key=A4
lovel=1
offset=192000
sample=Sopranos_Ooh_sustain_PP_A4.opus
tune=-14
</region>

<region>
hivel=127
key=B4
lovel=1
offset=192000
sample=Sopranos_Ooh_sustain_PP_B4.opus
tune=-3
</region>

<region>
hivel=127
key=C#4
lovel=1
offset=192000
sample=Sopranos_Ooh_sustain_PP_C#4.opus
tune=-14
</region>

<region>
hivel=127
key=D#4
lovel=1
offset=192000
sample=Sopranos_Ooh_sustain_PP_D#4.opus
tune=-11
</region>

<region>
hivel=127
key=D4
lovel=1
offset=192000
sample=Sopranos_Ooh_sustain_PP_D4.opus
tune=-6
</region>

<region>
hivel=127
key=E4
lovel=1
offset=192000
sample=Sopranos_Ooh_sustain_PP_E4.opus
tune=-15
</region>

<region>
hivel=127
key=F#4
lovel=1
offset=192000
sample=Sopranos_Ooh_sustain_PP_F#4.opus
tune=-6
</region>

<region>
hivel=127
key=F4
lovel=1
offset=192000
sample=Sopranos_Ooh_sustain_PP_F4.opus
tune=-14
</region>

<region>
hivel=127
key=G#4
lovel=1
offset=192000
sample=Sopranos_Ooh_sustain_PP_G#4.opus
tune=-16
</region>

<region>
hivel=127
key=G4
lovel=1
offset=192000
sample=Sopranos_Ooh_sustain_PP_G4.opus
tune=-14
</region>

<region>
hikey=C4
hivel=127
lokey=F3
lovel=1
offset=192000
sample=Sopranos_Ooh_sustain_PP_C4.opus
tune=-1
</region>
</group>

<group>
ampeg_attack=0.02
ampeg_release=3.5
group_label=FF_rel
trigger=release
xf_cccurve=gain
xfin_hicc1=127
xfin_locc1=64
xfout_hicc1=127
xfout_locc1=127

<region>
hikey=F6
hivel=127
lokey=A#5
lovel=1
offset=192000
pitch_keycenter=A#5
sample=Sopranos_Ooh_sustain_FF_A#5.opus
tune=+6
</region>

<region>
hivel=127
key=A5
lovel=1
offset=192000
sample=Sopranos_Ooh_sustain_FF_A5.opus
tune=+2
</region>

<region>
hivel=127
key=E5
lovel=1
offset=192000
sample=Sopranos_Ooh_sustain_FF_E5.opus
tune=-11
</region>

<region>
hivel=127
key=F#5
lovel=1
offset=192000
sample=Sopranos_Ooh_sustain_FF_F#5.opus
tune=-8
</region>

<region>
hivel=127
key=F5
lovel=1
offset=192000
sample=Sopranos_Ooh_sustain_FF_F5.opus
tune=-13
</region>

<region>
hivel=127
key=G#5
lovel=1
offset=192000
sample=Sopranos_Ooh_sustain_FF_G#5.opus
tune=-5
</region>

<region>
hivel=127
key=G5
lovel=1
offset=192000
sample=Sopranos_Ooh_sustain_FF_G5.opus
tune=-13
</region>

<region>
hivel=127
key=A#4
lovel=1
offset=192000
sample=Sopranos_Ooh_sustain_FF_A#4.opus
tune=+3
</region>

<region>
hivel=127
key=A4
lovel=1
offset=192000
sample=Sopranos_Ooh_sustain_FF_A4.opus
tune=-4
</region>

<region>
hivel=127
key=B4
lovel=1
offset=192000
sample=Sopranos_Ooh_sustain_FF_B4.opus
tune=-6
</region>

<region>
hivel=127
key=C#5
lovel=1
offset=192000
sample=Sopranos_Ooh_sustain_FF_C#5.opus
tune=-4
</region>

<region>
hivel=127
key=C5
lovel=1
offset=192000
sample=Sopranos_Ooh_sustain_FF_C5.opus
tune=+4
</region>

<region>
hivel=127
key=D#5
lovel=1
offset=192000
sample=Sopranos_Ooh_sustain_FF_D#5.opus
tune=+3
</region>

<region>
hivel=127
key=D5
lovel=1
offset=192000
sample=Sopranos_Ooh_sustain_FF_D5.opus
tune=-14
</region>

<region>
hivel=127
key=F#4
lovel=1
offset=192000
sample=Sopranos_Ooh_sustain_FF_F#4.opus
tune=-3
</region>

<region>
hivel=127
key=F4
lovel=1
offset=192000
sample=Sopranos_Ooh_sustain_FF_F4.opus
tune=-3
</region>

<region>
hivel=127
key=G#4
lovel=1
offset=192000
sample=Sopranos_Ooh_sustain_FF_G#4.opus
tune=-2
</region>

<region>
hivel=127
key=G4
lovel=1
offset=192000
sample=Sopranos_Ooh_sustain_FF_G4.opus
tune=-2
</region>

<region>
hivel=127
key=C#4
lovel=1
offset=192000
sample=Sopranos_Ooh_sustain_FF_C#4.opus
tune=-1
</region>

<region>
hikey=C4
hivel=127
lokey=F3
lovel=1
offset=192000
sample=Sopranos_Ooh_sustain_FF_C4.opus
tune=+3
</region>

<region>
hivel=127
key=D#4
lovel=1
offset=192000
sample=Sopranos_Ooh_sustain_FF_D#4.opus
tune=+3
</region>

<region>
hivel=127
key=D4
lovel=1
offset=192000
sample=Sopranos_Ooh_sustain_FF_D4.opus
tune=-6
</region>

<region>
hivel=127
key=E4
lovel=1
offset=192000
sample=Sopranos_Ooh_sustain_FF_E4.opus
tune=-4
</region>
</group>